<?xml version="1.0" encoding="utf-8"?>
<!-- Generator: Adobe Illustrator 21.1.0, SVG Export Plug-In . SVG Version: 6.00 Build 0)  -->
<svg version="1.1" xmlns="http://www.w3.org/2000/svg" xmlns:xlink="http://www.w3.org/1999/xlink" x="0px" y="0px"
	 viewBox="0 0 1024 1024" style="enable-background:new 0 0 1024 1024;" xml:space="preserve">
<style type="text/css">
	.st0{fill:#ADAEB3;}
	.st1{fill:#FFFFFF;}
	.st2{fill:#E6E6E8;}
	.st3{fill:#848589;}
	.st4{fill:none;stroke:#5C6D75;stroke-width:0.4356;stroke-miterlimit:10;}
	.st5{fill:#83858A;}
	.st6{fill:#CCCCCC;stroke:#FFFFFF;stroke-width:2;stroke-miterlimit:10;}
	.st7{font-family:'MyriadPro-Regular';}
	.st8{font-size:7.5222px;}
	.st9{font-size:7.5228px;}
	.st10{fill:#CCCCCC;stroke:#FFFFFF;stroke-width:1.9782;stroke-miterlimit:10;}
	.st11{font-size:7px;}
	.st12{enable-background:new    ;}
</style>
<g id="Calque_1">
	<path class="st0" d="M148.9,550.2L288,732.6l141.1-65.4l284-16.2l202.4,53.8l93.8-155.7L729.1,343.5
		C491.7,443.9,491.7,443.9,416.5,468.6c-61.1,20.1-123.3,43.2-154.9,51.4C230,528.1,148.9,550.2,148.9,550.2z"/>
	<g>
		<path class="st0" d="M143,378.8L10.8,364.3l134,180.1l20.8-9.2c-0.2-2.2,1-4.4,3.1-5.4c2.6-1.3,5.7-0.3,7.2,2.2l75.7-19.7
			c-0.7-3.3,1-6.8,4.1-8.3c3.8-1.8,8.3-0.2,10.1,3.5c0.2,0.3,0.3,0.7,0.4,1l1.6-0.4l58.9-17.2l-12.3-121.4L143,378.8z"/>
	</g>
	<polygon class="st1" points="203,383.5 206,383.2 254.9,499.4 251.9,500.3 	"/>
	<g>
		<path class="st2" d="M763.4,526.4l17.4,8.2l2.5-1.2l0.9-1.8c-1.1-1.1-2.1-2.3-2.8-3.8c-0.8-1.6-1.2-3.3-1.3-4.9l-14.6-7.8
			L763.4,526.4z"/>
		<path class="st2" d="M770,491.9l-2.2,11.6l16.8,8.8c0.8-0.7,1.8-1.4,2.9-1.9c2.5-1.2,5.2-1.6,7.8-1.1l1-2l-1.3-2.7L770,491.9z"/>
		<path class="st2" d="M766.4,510.8l14.2,7.8c0.4-1.2,0.9-2.4,1.6-3.5l-15.2-7.5L766.4,510.8z"/>
	</g>
	<ellipse transform="matrix(0.9002 -0.4355 0.4355 0.9002 -144.3699 359.2707)" class="st3" cx="711.6" cy="494.6" rx="4" ry="4"/>
	
		<ellipse transform="matrix(0.9002 -0.4355 0.4355 0.9002 -143.6647 377.7695)" class="st3" cx="752.3" cy="502.3" rx="7.3" ry="7.3"/>
	
		<ellipse transform="matrix(0.9002 -0.4355 0.4355 0.9002 -146.7371 318.3315)" class="st3" cx="621.1" cy="479.3" rx="5.1" ry="5.1"/>
	<g>
		<path class="st2" d="M741,483.7l-23-4.6l-0.9,3c2.9,1.3,5.4,3.5,6.8,6.6c0.3,0.6,0.6,1.3,0.8,1.9c4.3,0.8,11.3,2.3,14.7,3
			L741,483.7z"/>
		<path class="st2" d="M724.5,498.8l13.5,2.6l0.5-3l-13.3-3.1C725.1,496.6,724.9,497.7,724.5,498.8z"/>
		<path class="st2" d="M717.5,506.9c-1.8,0.9-3.6,1.3-5.5,1.4l0,0l0.9,3.6l22.6,3.7l1.6-9.6l-14.7-3.2
			C721.2,504.5,719.6,505.9,717.5,506.9z"/>
	</g>
	<line class="st4" x1="806" y1="530.7" x2="956.4" y2="607.9"/>
	<line class="st4" x1="692.8" y1="491.2" x2="637.2" y2="481.3"/>
	<line class="st4" x1="605.2" y1="485.4" x2="548.4" y2="509.8"/>
	<line class="st4" x1="360.6" y1="588.6" x2="313.4" y2="608.5"/>
	<line class="st4" x1="449.8" y1="551" x2="369.6" y2="584.8"/>
	<line class="st4" x1="539.4" y1="513.2" x2="458.2" y2="547.5"/>
	
		<ellipse transform="matrix(0.9002 -0.4355 0.4355 0.9002 -236.2813 193.2706)" class="st5" cx="303.5" cy="612.1" rx="5.1" ry="5.1"/>
	<g id="Calque_72">
		<polygon class="st6" points="357.9,579.6 347.8,555.9 321,566.8 332.1,593.2 355.9,582.9 		"/>
	</g>
	<g id="Calque_71">
		<polygon class="st6" points="321,566.8 347.8,555.9 336.1,528.3 309.7,540 		"/>
	</g>
	<g id="Calque_70">
		<polygon class="st6" points="336.1,528.3 328.3,509.9 324.7,508.7 299.7,516.2 309.7,540 		"/>
	</g>
	<g id="Calque_69">
		<path class="st6" d="M295.7,577.2l8.5,19.7c3.6,0,7.2,1.5,9.7,4.2l18.2-7.9L321,566.8L295.7,577.2z"/>
	</g>
	<g id="Calque_68">
		<polygon class="st6" points="309.7,540 284.4,551.1 295.7,577.2 321,566.8 		"/>
	</g>
	<g id="Calque_67">
		<polygon class="st6" points="299.7,516.2 276.3,523.2 274.1,527.4 284.4,551.1 309.7,540 		"/>
	</g>
	<g id="Calque_66">
		<path class="st6" d="M292.3,601.2l-9.8-22.9l-21.2,9.3l12.3,31.2l14.3-5.9C287.3,608.6,289,604.1,292.3,601.2z"/>
	</g>
	<g id="Calque_65">
		<polygon class="st6" points="234.6,599.3 240.9,607.9 240.9,607.9 254.7,626.7 273.6,618.9 261.3,587.6 		"/>
	</g>
	<g id="Calque_64">
		<polygon class="st6" points="216.3,574.4 221.4,581.4 221.4,581.4 231.2,594.6 231.2,594.6 234.6,599.3 261.3,587.6 261.3,587.6 
			282.5,578.3 270.8,551.2 		"/>
	</g>
	<g id="Calque_63">
		<polygon class="st6" points="270.8,551.2 261.7,530.1 257.2,528.7 229.8,536.2 241.8,563.6 		"/>
	</g>
	<g id="Calque_62">
		<polygon class="st6" points="201.1,553.7 211.3,567.6 211.3,567.6 216.3,574.4 241.8,563.6 229.8,536.2 195.2,545.6 		"/>
	</g>
	<g id="Calque_61">
		<polygon class="st6" points="219,625.3 228.3,637.6 254.7,626.7 240.9,607.9 		"/>
	</g>
	<g id="Calque_60">
		<polygon class="st6" points="231.2,594.6 208.7,611.6 219,625.3 240.9,607.9 		"/>
	</g>
	<g id="Calque_59">
		<polygon class="st6" points="221.4,581.4 198.6,598.3 208.7,611.6 231.2,594.6 		"/>
	</g>
	<g id="Calque_58">
		<polygon class="st6" points="211.3,567.6 188.4,584.8 198.6,598.3 221.4,581.4 		"/>
	</g>
	<g id="Calque_57">
		<polygon class="st6" points="201.1,553.7 178.2,571.2 188.4,584.8 211.3,567.6 		"/>
	</g>
	<polygon class="st6" points="195.2,545.6 179.9,549.8 175.7,567.9 178.2,571.2 201.1,553.7 	"/>
	<text transform="matrix(0.928 -0.3438 0.3474 0.9377 273.5406 601.4707)" class="st7 st8">100</text>
	<text transform="matrix(0.928 -0.3438 0.3474 0.9377 336.5408 577.4705)" class="st7 st8">87</text>
	<text transform="matrix(0.928 -0.3438 0.3474 0.9377 326.5409 551.4711)" class="st7 st8">88</text>
	<text transform="matrix(0.928 -0.3438 0.3474 0.9377 315.5408 526.4713)" class="st7 st8">89</text>
	<text transform="matrix(0.928 -0.3438 0.3474 0.9377 310.541 587.4704)" class="st7 st8">93</text>
	<text transform="matrix(0.928 -0.3438 0.3474 0.9377 300.5407 562.4708)" class="st7 st8">94</text>
	<text transform="matrix(0.928 -0.3438 0.3474 0.9377 288.5411 536.4708)" class="st7 st8">95</text>
	<text transform="matrix(0.928 -0.3438 0.3474 0.9377 250.5413 610.4704)" class="st7 st8">101</text>
	<text transform="matrix(0.928 -0.3438 0.3474 0.9377 246.5413 579.4708)" class="st7 st8">102</text>
	<text transform="matrix(0.928 -0.3438 0.3474 0.9377 246.541 549.4709)" class="st7 st8">103</text>
	<text transform="matrix(0.928 -0.3438 0.3474 0.9377 216.541 559.4709)" class="st7 st8">104</text>
	<text transform="matrix(0.8078 -0.5717 0.5777 0.8163 183.7449 562.522)" class="st7 st9">105</text>
	<text transform="matrix(0.8078 -0.5717 0.5777 0.8163 191.7458 574.5231)" class="st7 st9">106</text>
	<text transform="matrix(0.8078 -0.5717 0.5777 0.8163 201.7459 588.5225)" class="st7 st9">107</text>
	<text transform="matrix(0.8078 -0.5717 0.5777 0.8163 211.7446 601.5215)" class="st7 st9">108</text>
	<text transform="matrix(0.8078 -0.5717 0.5777 0.8163 221.7454 615.5217)" class="st7 st9">109</text>
	<text transform="matrix(0.8078 -0.5717 0.5777 0.8163 231.7452 629.5214)" class="st7 st9">110</text>
	<g id="Calque_55">
		<polygon class="st6" points="264.6,422.2 288.8,411.3 282.3,394.3 257.3,405.1 		"/>
	</g>
	<g id="Calque_54">
		<polygon class="st6" points="250,387.9 219.1,402.1 226.1,418.6 257.3,405.1 		"/>
	</g>
	<g id="Calque_53">
		<polygon class="st6" points="246.8,380.3 210.9,382.6 219.1,402.1 250,387.9 		"/>
	</g>
	<g id="Calque_52">
		<polygon class="st6" points="250.4,387.8 250,387.9 257.3,405.1 282.3,394.3 276.4,378.5 246.8,380.3 250,387.9 		"/>
	</g>
	<g id="Calque_51">
		<polygon class="st6" points="271.7,439.1 295.4,428.8 288.8,411.3 264.6,422.2 		"/>
	</g>
	<g id="Calque_50">
		<polygon class="st6" points="279,456 302,446.3 295.4,428.8 271.7,439.1 		"/>
	</g>
	<g id="Calque_49">
		<polygon class="st6" points="286.2,473.1 308.4,463.4 302,446.3 279,456 		"/>
	</g>
	<g id="Calque_48">
		<polygon class="st6" points="254.9,486.7 258.6,495.5 261.6,497.1 292.5,488 286.2,473.1 		"/>
	</g>
	<g id="Calque_47">
		<polygon class="st6" points="313.8,477.6 308.4,463.4 286.2,473.1 292.5,488 311.4,482.4 		"/>
	</g>
	<g id="Calque_46">
		<polygon class="st6" points="279,456 247.5,469.3 254.9,486.7 286.2,473.1 		"/>
	</g>
	<g id="Calque_45">
		<polygon class="st6" points="271.7,439.1 240.5,452.7 247.5,469.3 279,456 		"/>
	</g>
	<g id="Calque_44">
		<polygon class="st6" points="257.3,405.1 226.1,418.6 233.5,436.2 264.6,422.2 		"/>
	</g>
	<g id="Calque_43">
		<polygon class="st6" points="264.6,422.2 233.5,436.2 240.5,452.7 271.7,439.1 		"/>
	</g>
	<g id="Calque_42">
		<polygon class="st6" points="193,425 211.8,417.4 208.2,408.8 189.5,416.4 		"/>
	</g>
	<g id="Calque_41">
		<polygon class="st6" points="189.5,416.4 208.2,408.8 204.5,399.9 186,408 		"/>
	</g>
	<g id="Calque_40">
		<polygon class="st6" points="196.4,433 214.9,424.9 211.8,417.4 193,425 		"/>
	</g>
	<g id="Calque_39">
		<polygon class="st6" points="239.6,483.6 220.8,491.8 226.3,505 246.2,499.5 		"/>
	</g>
	<g id="Calque_38">
		<polygon class="st6" points="200.7,391.1 197.6,383.6 176.2,384.5 182.3,399.1 		"/>
	</g>
	<g id="Calque_37">
		<polygon class="st6" points="186,408 204.5,399.9 200.7,391.1 182.3,399.1 		"/>
	</g>
	<g id="Calque_36">
		<polygon class="st6" points="210.2,466.4 228.9,458.2 225.5,450 206.7,457.9 		"/>
	</g>
	<g id="Calque_35">
		<polygon class="st6" points="217.2,483 235.9,474.9 232.4,466.5 213.7,474.6 		"/>
	</g>
	<g id="Calque_34">
		<polygon class="st6" points="213.7,474.6 232.4,466.5 228.9,458.2 210.2,466.4 		"/>
	</g>
	<g id="Calque_33">
		<polygon class="st6" points="220.8,491.8 239.6,483.6 235.9,474.9 217.2,483 		"/>
	</g>
	<g id="Calque_32">
		<polygon class="st6" points="203.4,449.8 222,441.7 218.3,432.8 199.7,440.9 		"/>
	</g>
	<g id="Calque_31">
		<polygon class="st6" points="176.2,384.5 155.6,385.3 153.5,388.5 161.7,408.1 182.3,399.1 		"/>
	</g>
	<g id="Calque_30">
		<polygon class="st6" points="206.7,457.9 225.5,450 222,441.7 203.4,449.8 		"/>
	</g>
	<g id="Calque_29">
		<polygon class="st6" points="199.7,440.9 218.3,432.8 214.9,424.9 196.4,433 		"/>
	</g>
	<g id="Calque_28">
		<polygon class="st6" points="213.7,474.6 193.3,483.5 196.9,491.9 217.2,483 		"/>
	</g>
	<g id="Calque_27">
		<polygon class="st6" points="203.4,449.8 182.9,458.7 186.2,466.5 206.7,457.9 		"/>
	</g>
	<g id="Calque_26">
		<polygon class="st6" points="206.7,457.9 186.2,466.5 189.9,475.2 210.2,466.4 		"/>
	</g>
	<g id="Calque_25">
		<polygon class="st6" points="210.2,466.4 189.9,475.2 193.3,483.5 213.7,474.6 		"/>
	</g>
	<g id="Calque_24">
		<polygon class="st6" points="217.2,483 196.9,491.9 200.5,500.6 220.8,491.8 		"/>
	</g>
	<g id="Calque_23">
		<polygon class="st6" points="200.5,500.6 203.3,507.2 209.1,509.7 226.3,505 220.8,491.8 		"/>
	</g>
	<g id="Calque_22">
		<polygon class="st6" points="196.4,433 175.9,441.9 179.2,449.8 199.7,440.9 		"/>
	</g>
	<g id="Calque_21">
		<polygon class="st6" points="186,408 165.4,416.9 168.7,424.9 189.5,416.4 		"/>
	</g>
	<g id="Calque_20">
		<polygon class="st6" points="199.7,440.9 179.2,449.8 182.9,458.7 203.4,449.8 		"/>
	</g>
	<g id="Calque_19">
		<polygon class="st6" points="189.5,416.4 168.7,424.9 172.3,433.4 193,425 		"/>
	</g>
	<g id="Calque_18">
		<polygon class="st6" points="182.3,399.1 161.7,408.1 165.4,416.9 186,408 		"/>
	</g>
	<g id="Calque_17">
		<polygon class="st6" points="193,425 172.3,433.4 175.9,441.9 196.4,433 		"/>
	</g>
	<g id="Calque_16">
		<polygon class="st6" points="94.6,390 94.5,390.1 104.2,410.9 147.4,392.4 145.8,388.4 136.9,384.9 90,380.5 94.5,390.1 		"/>
	</g>
	<g id="Calque_15">
		<polygon class="st6" points="114.9,433.6 130.2,427 130.2,427 130.2,427 157,415.6 147.4,392.4 104.2,410.9 		"/>
	</g>
	<g id="Calque_14">
		<path class="st6" d="M90,380.5L43.1,376c-6.1-0.6-9.9,6.3-6.3,11.2l16,21.5l41.6-18.6L90,380.5z"/>
	</g>
	<g id="Calque_13">
		<polygon class="st6" points="155.8,487.1 181.9,475.9 174.2,457.4 148,468.6 		"/>
	</g>
	<g id="Calque_12">
		<polygon class="st6" points="94.5,390.1 52.9,408.7 66.6,427.1 104.2,410.9 		"/>
	</g>
	<g id="Calque_11">
		<polygon class="st6" points="148,468.6 174.2,457.4 166.6,438.9 140.1,450.2 		"/>
	</g>
	<g id="Calque_10">
		<polygon class="st6" points="140.1,450.2 166.6,438.9 157,415.6 130.2,427 		"/>
	</g>
	<g id="Calque_9">
		<polygon class="st6" points="163.7,505.5 189.6,494.5 181.9,475.9 155.8,487.1 		"/>
	</g>
	<g id="Calque_8">
		<polygon class="st6" points="134.4,518 141,526.9 169.4,519 163.7,505.5 		"/>
	</g>
	<g id="Calque_7">
		<polygon class="st6" points="155.8,487.1 122.1,501.5 134.4,518 163.7,505.5 		"/>
	</g>
	<g id="Calque_6">
		<polygon class="st6" points="195.2,508.2 189.6,494.5 163.7,505.5 169.4,519 192.7,512.6 		"/>
	</g>
	<g id="Calque_5">
		<polygon class="st6" points="140.1,450.2 97.4,468.4 109.7,485 148,468.6 		"/>
	</g>
	<g id="Calque_4">
		<polygon class="st6" points="148,468.6 109.7,485 122.1,501.5 155.8,487.1 		"/>
	</g>
	<g id="Calque_3">
		<polygon class="st6" points="130.2,427 114.9,433.6 115,433.8 114.9,433.6 81.9,447.7 97.4,468.4 140.1,450.2 		"/>
	</g>
	<g id="Calque_2">
		<polygon class="st6" points="104.2,410.9 66.6,427.1 81.9,447.7 114.9,433.6 		"/>
	</g>
	<g id="Calque_19_1_">
		<path class="st6" d="M599.3,440.6l-33.8,15l14,34l25.3-11.4c-0.2-4.5,1.7-8.9,5.3-11.8L599.3,440.6z"/>
	</g>
	<g id="Calque_18_1_">
		<polygon class="st6" points="599.3,440.6 588.7,415 583.2,412.5 553,425 565.5,455.6 		"/>
	</g>
	<g id="Calque_17_1_">
		<polygon class="st6" points="531.5,470.7 544.1,500.8 549.2,503.3 579.5,489.7 565.5,455.6 		"/>
	</g>
	<g id="Calque_16_1_">
		<polygon class="st6" points="553,425 521.5,438.1 519.7,442.4 531.5,470.7 565.5,455.6 		"/>
	</g>
	<g id="Calque_15_1_">
		<polygon class="st6" points="536,503.7 523.5,474.6 503.9,483 517.5,515.4 534.1,508.2 		"/>
	</g>
	<g id="Calque_14_1_">
		<polygon class="st6" points="483.1,492 496.7,524.5 517.5,515.4 503.9,483 		"/>
	</g>
	<g id="Calque_13_1_">
		<polygon class="st6" points="461.8,501.1 476,533.5 496.7,524.5 483.1,492 		"/>
	</g>
	<g id="Calque_12_1_">
		<polygon class="st6" points="441.8,509.7 453.8,538.5 459.1,540.9 476,533.5 461.8,501.1 		"/>
	</g>
	<g id="Calque_11_1_">
		<polygon class="st6" points="523.5,474.6 511.2,445.9 506.8,444.2 490.2,450.4 503.9,483 		"/>
	</g>
	<g id="Calque_10_1_">
		<polygon class="st6" points="503.9,483 490.2,450.4 469.1,458.4 483.1,492 		"/>
	</g>
	<g id="Calque_9_1_">
		<polygon class="st6" points="483.1,492 469.1,458.4 446.8,466.8 461.8,501.1 		"/>
	</g>
	<g id="Calque_8_1_">
		<polygon class="st6" points="446.8,466.8 430.1,473.1 427.9,476.4 441.8,509.7 461.8,501.1 		"/>
	</g>
	<g id="Calque_7_1_">
		<polygon class="st6" points="446.4,542.1 432,508.8 405,520.4 420.1,556.9 444.5,546.7 		"/>
	</g>
	<g id="Calque_6_1_">
		<polygon class="st6" points="376.6,532.5 391.9,568.8 420.1,556.9 405,520.4 		"/>
	</g>
	<g id="Calque_5_1_">
		<polygon class="st6" points="351.6,543.3 365.5,576.4 369.7,578.1 391.9,568.8 376.6,532.5 		"/>
	</g>
	<g id="Calque_4_1_">
		<polygon class="st6" points="432,508.8 419.2,478.9 414.7,478 390.8,486.1 405,520.4 		"/>
	</g>
	<g id="Calque_3_1_">
		<polygon class="st6" points="361.2,496.1 339.5,503.4 336.6,507.3 351.6,543.3 376.6,532.5 		"/>
	</g>
	<g id="Calque_2_1_">
		<polygon class="st6" points="405,520.4 390.8,486.1 361.2,496.1 376.6,532.5 		"/>
		<text transform="matrix(0.928 -0.3438 0.3474 0.9377 368.6001 558.4003)" class="st7 st8">82</text>
		<text transform="matrix(0.928 -0.3438 0.3474 0.9377 396.1003 547.4999)" class="st7 st8">78</text>
		<text transform="matrix(0.928 -0.3438 0.3474 0.9377 424.0125 535.6793)" class="st7 st8">74</text>
		<text transform="matrix(0.928 -0.3438 0.3474 0.9377 409.7003 502.9004)" class="st7 st8">75</text>
		<text transform="matrix(0.928 -0.3438 0.3474 0.9377 456.3999 524.5013)" class="st7 st8">70</text>
		<text transform="matrix(0.928 -0.3438 0.3474 0.9377 441.7918 491.9007)" class="st7 st8">71</text>
		<text transform="matrix(0.928 -0.3438 0.3474 0.9377 476.976 515.6005)" class="st7 st8">65</text>
		<text transform="matrix(0.928 -0.3438 0.3474 0.9377 498.4498 506.6505)" class="st7 st8">61</text>
		<text transform="matrix(0.928 -0.3438 0.3474 0.9377 517.6087 497.601)" class="st7 st8">57</text>
		<text transform="matrix(0.928 -0.3438 0.3474 0.9377 585.8995 467.3002)" class="st7 st8">46</text>
		<text transform="matrix(0.928 -0.3438 0.3474 0.9377 573.2328 437.6743)" class="st7 st8">47</text>
		<text transform="matrix(0.928 -0.3438 0.3474 0.9377 552.9566 483.0507)" class="st7 st8">52</text>
		<text transform="matrix(0.928 -0.3438 0.3474 0.9377 540.9565 452.3832)" class="st7 st8">53</text>
		<text transform="matrix(0.928 -0.3438 0.3474 0.9377 504.8763 468.2671)" class="st7 st8">58</text>
		<text transform="matrix(0.928 -0.3438 0.3474 0.9377 484.4496 475.7003)" class="st7 st8">62</text>
		<text transform="matrix(0.928 -0.3438 0.3474 0.9377 463.643 484.3782)" class="st7 st8">66</text>
		<text transform="matrix(0.928 -0.3438 0.3474 0.9377 382 513.2001)" class="st7 st8">79</text>
		<text transform="matrix(0.928 -0.3438 0.3474 0.9377 354.5499 524.3497)" class="st7 st8">83</text>
	</g>
</g>
<g id="Calque_110">
	<polygon class="st10" points="708.4,650.4 707.1,627.4 669.1,629.3 670.2,652.6 	"/>
</g>
<g id="Calque_109">
	<polygon class="st10" points="669.1,629.3 570,634.5 571.1,658.4 670.2,652.6 	"/>
</g>
<g id="Calque_108">
	<polygon class="st10" points="543.1,635.9 544.1,660 571.1,658.4 570,634.5 	"/>
</g>
<g id="Calque_107">
	<path class="st10" d="M502.4,638.7l1.1,23.5c0,0,0,0.1,0.1,0.1L544,660c0,0,0.1,0,0.1-0.1l-1-23.9c0,0,0-0.1-0.1-0.1l-40,2.1
		C502.7,638.1,502.4,638.4,502.4,638.7z"/>
</g>
<g id="Calque_106">
	<path class="st10" d="M433.5,666.5l70-4.1l-1.2-23.8c0-0.2-0.2-0.4-0.5-0.3L433.5,666.5z"/>
</g>
<g id="Calque_105">
	<polygon class="st6" points="778.4,594.4 778.6,594.5 780.2,591.4 760.4,581.5 747.5,650.7 749.9,651.4 778.6,594.5 	"/>
</g>
<g id="Calque_104">
	<polygon class="st6" points="791,570.1 765.1,556.4 760.4,581.5 780.2,591.4 	"/>
</g>
<g id="Calque_103">
	<path class="st6" d="M807.9,536.4c-2.5-1.3-4.2-2.2-4.9-2.6c-3.1,5.3-12.1,3.5-12.1,3.5l-3.9,8l-1.3,0.4l-17.2-7.7l-3.4,18.4
		l25.9,13.7L807.9,536.4z"/>
</g>
<g id="Calque_102">
	<path class="st6" d="M791.2,570.2l-0.2-0.1l-10.7,21.3l0.3,0.1l-0.3-0.1l-1.6,3.1l30,15.2l29.3-57.5c-13.1-6.9-24-12.6-30-15.8
		l-17,33.7L791.2,570.2z"/>
</g>
<g id="Calque_101">
	<polygon class="st6" points="778.6,594.5 749.9,651.4 782.7,660.5 808.6,609.7 	"/>
</g>
<g id="Calque_100">
	<path class="st6" d="M838.3,624.8l29-57.2c-10.4-5.4-20.4-10.7-29.4-15.4l-29.3,57.5L838.3,624.8z"/>
</g>
<g id="Calque_99">
	<polygon class="st6" points="808.6,609.7 782.7,660.5 815.6,669.6 838.3,624.8 	"/>
</g>
<g id="Calque_98">
	<path class="st6" d="M867.7,639.7l28.8-56.8c-9.5-5-19.4-10.2-29.1-15.2l-29,57.2L867.7,639.7z"/>
</g>
<g id="Calque_97">
	<polygon class="st6" points="838.3,624.8 815.6,669.6 848,678.5 867.7,639.7 	"/>
</g>
<g id="Calque_96">
	<path class="st6" d="M897.4,654.7l29.1-56.1c-8.9-4.7-19.2-10.1-30-15.7l-28.8,56.8L897.4,654.7z"/>
</g>
<g id="Calque_95">
	<polygon class="st6" points="867.7,639.7 848,678.5 880.4,687.5 897.4,654.7 	"/>
</g>
<g id="Calque_94">
	<path class="st6" d="M955.7,613.8c0,0-12-6.3-29.2-15.3l-29.1,56.1l31,15.7l30.4-50.9L955.7,613.8z"/>
</g>
<g id="Calque_93">
	<polygon class="st6" points="880.4,687.5 909.2,695.5 914.2,694.3 928.4,670.5 897.4,654.7 	"/>
</g>
<g id="Calque_92">
	<polygon class="st6" points="818.6,420.5 796.3,404.5 792.3,406.6 789.7,419.9 812.7,431.9 	"/>
</g>
<g id="Calque_91">
	<polygon class="st6" points="812.7,431.9 789.7,419.9 787.2,433.1 806.3,443.9 	"/>
</g>
<g id="Calque_90">
	<polygon class="st6" points="806.3,443.9 787.2,433.1 784.6,446.5 800.1,455.9 	"/>
</g>
<g id="Calque_89">
	<polygon class="st6" points="784.6,446.5 777.2,484.4 778.8,488 782.2,489.9 800.1,455.9 	"/>
</g>
<g id="Calque_88">
	<polygon class="st6" points="812.8,431.9 812.7,431.9 806.3,443.9 806.4,444 806.3,443.9 800.1,455.9 820.8,468.4 838.9,434.9 
		818.6,420.5 812.7,431.9 	"/>
</g>
<g id="Calque_87">
	<polygon class="st6" points="800.1,455.9 782.2,489.9 803,501.2 820.8,468.4 	"/>
</g>
<g id="Calque_86">
	<polygon class="st6" points="842.2,481.3 858.9,449.3 838.9,434.9 820.8,468.4 	"/>
</g>
<g id="Calque_85">
	<path class="st6" d="M820.8,468.4L803,501.2l3,1.6l1.3,2c0,0-0.6,2.4-3.3,7.5c6.2,6.2,4,12,4,12l9.1,4.8l25.1-47.9L820.8,468.4z"/>
</g>
<g id="Calque_84">
	<polygon class="st6" points="863.6,494.2 879,463.6 858.9,449.3 842.2,481.3 	"/>
</g>
<g id="Calque_83">
	<polygon class="st6" points="842.2,481.3 817.1,529.2 839.8,541.2 863.6,494.2 	"/>
</g>
<g id="Calque_82">
	<polygon class="st6" points="885.2,507.3 900.1,478.7 886.5,469 879,463.6 863.6,494.2 	"/>
</g>
<g id="Calque_81">
	<polygon class="st6" points="863.6,494.2 839.8,541.2 861.5,552.7 885.2,507.3 	"/>
</g>
<g id="Calque_80">
	<polygon class="st6" points="905.8,519.8 919.7,492.8 900.1,478.7 885.2,507.3 	"/>
</g>
<g id="Calque_79">
	<polygon class="st6" points="885.2,507.3 861.5,552.7 863,553.5 883,564.2 905.8,519.8 	"/>
</g>
<g id="Calque_78">
	<polygon class="st6" points="927.3,532.7 940.2,507.6 919.7,492.8 905.8,519.8 	"/>
</g>
<g id="Calque_77">
	<polygon class="st6" points="905.8,519.8 883,564.2 905.1,575.9 927.3,532.7 	"/>
</g>
<g id="Calque_76">
	<polygon class="st6" points="948.9,545.8 960.9,522.4 940.2,507.6 927.3,532.7 	"/>
</g>
<g id="Calque_75">
	<polygon class="st6" points="927.3,532.7 905.1,575.9 927.3,587.7 948.9,545.8 	"/>
</g>
<g id="Calque_74">
	<polygon class="st6" points="970.1,558.6 981.7,537.4 960.9,522.4 948.9,545.8 	"/>
</g>
<g id="Calque_73">
	<polygon class="st6" points="948.9,545.8 927.3,587.7 948,598.7 970.1,558.6 	"/>
</g>
<g id="Calque_72_1_">
	<polygon class="st6" points="995.8,547.5 981.7,537.4 970.1,558.6 988.7,569.9 998.5,553.5 	"/>
</g>
<g id="Calque_71_1_">
	<polygon class="st6" points="948,598.7 960.2,605.2 968.8,603 988.7,569.9 970.1,558.6 	"/>
</g>
<g id="Calque_70_1_">
	<polygon class="st6" points="697.3,527.3 697.4,527.4 697.3,527.3 696.7,530.6 725.1,536.4 727.2,524.9 725.9,522.3 704.4,518.1 
		703.1,515.3 703.4,513.9 699.6,514.1 	"/>
</g>
<g id="Calque_69_1_">
	<polygon class="st6" points="696.7,530.6 694.3,544.2 722.7,549.9 725.1,536.4 	"/>
</g>
<g id="Calque_68_1_">
	<polygon class="st6" points="693.5,548.7 693.5,548.7 693.5,548.7 691.9,557.5 720.3,563.2 722.7,549.9 694.3,544.2 	"/>
</g>
<g id="Calque_67_1_">
	<polygon class="st6" points="689.8,569.6 689.8,569.6 689.8,569.6 689.6,570.5 717.9,576.2 720.3,563.2 691.9,557.5 	"/>
</g>
<g id="Calque_66_1_">
	<polygon class="st6" points="687.3,583.7 715.6,589.1 717.9,576.2 689.6,570.5 	"/>
</g>
<g id="Calque_65_1_">
	<polygon class="st6" points="684.9,597.4 713.1,602.8 715.6,589.1 687.3,583.7 	"/>
</g>
<g id="Calque_64_1_">
	<polygon class="st6" points="684.8,597.5 684.9,597.4 673.7,595.3 682.1,615.2 685.7,617.4 707.9,616.5 710.9,615.1 713.1,602.8 
		684.9,597.4 	"/>
</g>
<g id="Calque_63_1_">
	<path class="st6" d="M660.4,491.3l-24.3-4.5c-1.2,2.4-3,4.4-5.4,5.9l10.7,25.6l13.6,2.2L660.4,491.3z"/>
</g>
<g id="Calque_62_1_">
	<polygon class="st6" points="676.2,523.9 681,495.1 660.4,491.3 655.1,520.5 	"/>
</g>
<g id="Calque_61_1_">
	<path class="st6" d="M697.3,527.3l2.3-13.2l3.7-0.2l1-5.2c-2.9-1.3-5.4-3.6-6.9-6.7c-0.7-1.4-1.1-2.7-1.3-4.1l-15.2-2.8l-4.9,28.8
		L697.3,527.3z"/>
</g>
<g id="Calque_60_1_">
	<polygon class="st6" points="694.3,544.2 694.1,544.1 694.3,544.2 696.7,530.6 696.5,530.6 696.7,530.6 697.3,527.3 676.2,523.9 
		676.2,524 676.2,523.9 655.1,520.5 655.1,520.5 655.1,520.5 641.4,518.3 650.5,539.9 693.5,548.7 	"/>
</g>
<g id="Calque_59_1_">
	<polygon class="st6" points="691.9,557.5 691.8,557.5 691.9,557.5 693.5,548.7 650.5,539.9 660.5,563.6 689.8,569.6 	"/>
</g>
<g id="Calque_58_1_">
	<polygon class="st6" points="687.3,583.7 687.1,583.6 687.3,583.7 689.6,570.5 689.5,570.5 689.6,570.5 689.8,569.6 660.5,563.6 
		673.7,595.3 684.9,597.4 	"/>
</g>
<g id="Calque_57_1_">
	<polygon class="st6" points="750.8,389.2 753.3,374.2 742.6,364.9 737.9,386.5 	"/>
</g>
<g id="Calque_56">
	<polygon class="st6" points="737.9,386.5 742.6,364.9 729.7,353.7 724.3,383.8 	"/>
</g>
<g id="Calque_55_1_">
	<polygon class="st6" points="737.9,386.5 737.8,386.7 737.9,386.5 724.3,383.8 722,396.6 748.6,401.8 750.8,389.2 	"/>
</g>
<g id="Calque_54_1_">
	<polygon class="st6" points="720,408.2 746.6,413.5 748.6,401.8 722,396.6 	"/>
</g>
<g id="Calque_53_1_">
	<polygon class="st6" points="717.9,419.9 744.6,425.7 746.6,413.5 720,408.2 	"/>
</g>
<g id="Calque_52_1_">
	<polygon class="st6" points="716.2,429.2 716.2,429.2 716.2,429.2 715.8,431.3 742.7,437 744.6,425.7 717.9,419.9 	"/>
</g>
<g id="Calque_51_1_">
	<polygon class="st6" points="713.6,443.9 740.6,449.2 742.7,437 715.8,431.3 	"/>
</g>
<g id="Calque_50_1_">
	<polygon class="st6" points="711.4,456.1 738.6,460.9 740.6,449.2 713.6,443.9 	"/>
</g>
<g id="Calque_49_1_">
	<polygon class="st6" points="709,469.4 711.5,471.2 711.7,470.5 733.3,473.7 736.7,472.1 738.6,460.9 711.4,456.1 	"/>
</g>
<g id="Calque_48_1_">
	<polygon class="st6" points="622.4,396 599.2,405.7 597.5,411.2 609.2,438.2 634.5,427.2 	"/>
</g>
<g id="Calque_47_1_">
	<polygon class="st6" points="654.7,418.4 662.2,379.4 622.4,396 634.5,427.2 	"/>
</g>
<g id="Calque_46_1_">
	<path class="st6" d="M634.5,427.2L634.5,427.2L634.5,427.2l-25.3,11l10.8,25.1c6.3-1.2,12.8,1.9,15.7,7.9c0.7,1.4,1.1,2.9,1.3,4.3
		l6.4,1.1l11.2-58.2L634.5,427.2z"/>
</g>
<g id="Calque_45_1_">
	<polygon class="st6" points="654.8,418.3 685.3,423.7 696.3,365.1 662.2,379.4 654.7,418.4 	"/>
</g>
<g id="Calque_44_1_">
	<polygon class="st6" points="654.8,418.3 654.7,418.4 643.4,476.6 674.3,481.8 685.3,423.7 	"/>
</g>
<g id="Calque_43_1_">
	<polygon class="st6" points="716.2,429.2 717.9,419.9 717.6,419.8 717.9,419.9 720,408.2 719.8,408.1 720,408.2 722,396.6 
		721.9,396.6 722,396.6 724.3,383.8 724.3,383.7 724.3,383.8 729.7,353.7 727.8,352 696.3,365.1 685.3,423.7 	"/>
</g>
<g id="Calque_42_1_">
	<path class="st6" d="M711.4,456.1l-0.2,0L711.4,456.1l2.2-12.2l-0.2,0l0.2,0l2.2-12.5l-0.2,0l0.2,0l0.4-2.1l-30.9-5.5l-11,58.1
		l24.4,4.1c1.4-1.9,8.5-6,10.3-6.1l2.5-8.6l-2.5-1.8L711.4,456.1z"/>
</g>
<g id="Calque_41_1_">
	<polygon class="st6" points="585.9,502.8 553.4,515.9 551.8,519.6 562.4,544.4 597,529.5 	"/>
</g>
<g id="Calque_40_1_">
	<polygon class="st6" points="597,529.5 562.4,544.4 574.8,573.2 609.1,558.4 	"/>
</g>
<g id="Calque_39_1_">
	<polygon class="st6" points="609.1,558.4 574.8,573.2 587,601.7 621.1,587.2 	"/>
</g>
<g id="Calque_38_1_">
	<polygon class="st6" points="587,601.7 594.9,620 598.7,622.7 635,620.4 621.1,587.2 	"/>
</g>
<g id="Calque_37_1_">
	<path class="st6" d="M630.4,515.1l-8.1-19.1c-4,0.5-7.9-0.8-10.9-3.4l-25.5,10.2l11.1,26.6L630.4,515.1z"/>
</g>
<g id="Calque_36_1_">
	<polygon class="st6" points="609.1,558.4 642.6,544 630.4,515.1 597,529.5 	"/>
</g>
<g id="Calque_35_1_">
	<polygon class="st6" points="621.1,587.2 654.8,572.9 642.6,544 609.1,558.4 	"/>
</g>
<g id="Calque_34_1_">
	<polygon class="st6" points="671.6,612.6 654.8,572.9 621.1,587.2 635,620.4 668.4,618.2 	"/>
</g>
<g id="Calque_33_1_">
	<polygon class="st6" points="480.6,545.3 463.9,552.4 461.8,556.8 471.8,580.3 491.7,571.8 	"/>
</g>
<g id="Calque_32_1_">
	<polygon class="st6" points="499.5,590.5 499.4,590.6 499.5,590.5 491.7,571.8 471.8,580.3 483.9,608.6 503.5,600 	"/>
</g>
<g id="Calque_31_1_">
	<polygon class="st6" points="483.9,608.6 491.7,626.8 496.8,629.1 515.2,628.1 503.5,600 	"/>
</g>
<g id="Calque_30_1_">
	<polygon class="st6" points="491.7,571.8 491.7,571.8 499.5,590.5 520.4,581.6 501.3,536.6 480.6,545.3 491.7,571.8 	"/>
</g>
<g id="Calque_29_1_">
	<polygon class="st6" points="499.5,590.5 503.5,600 503.5,600 503.5,600 515.2,628.1 539.4,626.7 520.4,581.6 	"/>
</g>
<g id="Calque_28_1_">
	<polygon class="st6" points="541.4,572.7 536.8,561.6 536.7,561.6 536.8,561.6 522.4,527.7 501.3,536.6 520.4,581.6 	"/>
</g>
<g id="Calque_27_1_">
	<polygon class="st6" points="551,595.6 551.1,595.6 541.4,572.7 520.4,581.6 539.4,626.7 563.7,625.3 551.1,595.6 	"/>
</g>
<g id="Calque_26_1_">
	<polygon class="st6" points="556.6,553 543.7,522.2 539.6,520.4 522.4,527.7 536.8,561.6 	"/>
</g>
<g id="Calque_25_1_">
	<polygon class="st6" points="541.4,572.7 541.4,572.7 541.4,572.7 551.1,595.6 570.9,587.2 556.6,553 536.8,561.6 	"/>
</g>
<g id="Calque_24_1_">
	<polygon class="st6" points="584.2,618.8 570.9,587.2 551.1,595.6 563.7,625.3 581.4,624.3 	"/>
</g>
<g id="Calque_23_1_">
	<polygon class="st6" points="397,580 374.3,589.3 372.2,594 388,630.4 413.3,619.5 	"/>
</g>
<g id="Calque_22_1_">
	<polygon class="st6" points="388,630.4 402.9,664.7 407.5,666.9 429,657.5 413.3,619.5 	"/>
</g>
<g id="Calque_21_1_">
	<polygon class="st6" points="441.5,607.4 425.6,568.3 397,580 413.3,619.5 	"/>
</g>
<g id="Calque_20_1_">
	<polygon class="st6" points="413.3,619.5 429,657.5 456.9,645.3 441.5,607.4 	"/>
</g>
<g id="Calque_19_2_">
	<polygon class="st6" points="468.6,595.7 453.1,560.1 449.1,558.7 425.6,568.3 441.5,607.4 	"/>
</g>
<g id="Calque_18_2_">
	<polygon class="st6" points="484,631 468.6,595.7 441.5,607.4 456.9,645.3 482.8,634 	"/>
</g>
<g id="Calque_17_2_">
	<path class="st6" d="M336.9,605.4l-18,8c0,4.4-2.1,8.7-5.9,11.3l8.7,21l27.4-11.7L336.9,605.4z"/>
</g>
<g id="Calque_16_2_">
	<polygon class="st6" points="349.1,634 321.7,645.7 332.7,672.5 360.4,660.6 	"/>
</g>
<g id="Calque_15_2_">
	<polygon class="st6" points="332.7,672.5 341.5,693.8 345.9,695.5 370.3,683.7 360.4,660.6 	"/>
</g>
<g id="Calque_14_2_">
	<polygon class="st6" points="375.6,622.7 364.6,596.8 360.2,595.1 336.9,605.4 349.1,634 	"/>
</g>
<g id="Calque_13_2_">
	<polygon class="st6" points="360.4,660.6 386.9,649.4 375.6,622.7 349.1,634 	"/>
</g>
<g id="Calque_12_2_">
	<polygon class="st6" points="386.9,649.4 360.4,660.6 370.3,683.7 396.1,671.2 	"/>
</g>
<g id="Calque_11_2_">
	<polygon class="st6" points="261.9,634.6 235.4,646.2 234.2,649.6 245.8,664.8 270.4,645.8 	"/>
</g>
<g id="Calque_10_2_">
	<polygon class="st6" points="270.4,645.8 245.8,664.8 255.1,677 279.5,658 	"/>
</g>
<g id="Calque_9_2_">
	<polygon class="st6" points="285.1,665.4 285,665.5 285.1,665.4 279.5,658 255.1,677 264.2,689.1 288.8,670.4 	"/>
</g>
<g id="Calque_8_2_">
	<polygon class="st6" points="288.8,670.4 264.2,689.1 273.5,701.2 298.1,682.6 	"/>
</g>
<g id="Calque_7_2_">
	<polygon class="st6" points="301.5,687.1 301.5,687.1 301.5,687.1 298.1,682.6 273.5,701.2 282.8,713.4 307.2,694.7 	"/>
</g>
<g id="Calque_6_2_">
	<polygon class="st6" points="282.8,713.4 288.5,720.9 290.7,722 317.9,708.9 307.2,694.7 	"/>
</g>
<g id="Calque_5_2_">
	<polygon class="st6" points="270.5,645.7 270.4,645.8 279.5,658 279.6,657.9 279.5,658 285.1,665.4 298.1,659.1 283.5,625.2 
		261.9,634.6 270.4,645.8 	"/>
</g>
<g id="Calque_4_2_">
	<path class="st6" d="M315.3,650.8l-9.7-23c-5.3,1.1-10.9-1.3-13.9-6.2l-8.2,3.6l14.6,34L315.3,650.8z"/>
</g>
<g id="Calque_3_2_">
	<polygon class="st6" points="298.1,659.2 298.1,659.1 285.1,665.4 288.8,670.4 288.9,670.3 288.8,670.4 298.1,682.6 298.1,682.6 
		298.1,682.6 301.5,687.1 325.9,675.9 315.3,650.8 298.1,659.1 	"/>
</g>
<g id="Calque_2_2_">
	<polygon class="st6" points="335,697.7 325.9,675.9 301.5,687.1 307.2,694.7 307.2,694.7 307.2,694.7 317.9,708.9 333.8,701.2 	"/>
	<text transform="matrix(0.928 -0.3438 0.3474 0.9377 317.2436 695.5005)" class="st7 st8">96</text>
	<text transform="matrix(0.928 -0.3438 0.3474 0.9377 376.6004 670.4005)" class="st7 st8">84</text>
	<text transform="matrix(0.928 -0.3438 0.3474 0.9377 459.8002 622.7288)" class="st7 st8">72</text>
	<text transform="matrix(0.928 -0.3438 0.3474 0.9377 564.3002 609.7288)" class="st7 st8">54</text>
	<text transform="matrix(0.928 -0.3438 0.3474 0.9377 642.6096 601.6842)" class="st7 st8">42</text>
	<text transform="matrix(0.9843 0.1027 -0.1038 0.9946 673.9155 582.0747)" class="st7 st8">29</text>
	<text transform="matrix(0.9843 0.1027 -0.1038 0.9946 669.7993 556.8997)" class="st7 st8">30</text>
	<text transform="matrix(0.9843 0.1027 -0.1038 0.9946 666.3124 535.6785)" class="st7 st8">31</text>
	<text transform="matrix(0.9843 0.1027 -0.1038 0.9946 685.2626 513.936)" class="st7 st8">32</text>
	<text transform="matrix(0.9843 0.1027 -0.1038 0.9946 664.353 509.7995)" class="st7 st8">33</text>
	<text transform="matrix(0.9843 0.1027 -0.1038 0.9946 642.6088 504.7998)" class="st7 st8">34</text>
	<text transform="matrix(0.9843 0.1027 -0.1038 0.9946 688.2822 609.729)" class="st7 st8">171</text>
	<text transform="matrix(0.9808 0.1317 -0.1331 0.9911 694.2637 595.0831)" class="st7 st8">172</text>
	<text transform="matrix(0.9808 0.1317 -0.1331 0.9911 696.7139 581.639)" class="st7 st8">173</text>
	<text transform="matrix(0.9808 0.1317 -0.1331 0.9911 698.9639 569.0003)" class="st7 st8">174</text>
	<text transform="matrix(0.9808 0.1317 -0.1331 0.9911 700.6982 555.3013)" class="st7 st8">175</text>
	<text transform="matrix(0.9808 0.1317 -0.1331 0.9911 703.3999 542.0513)" class="st7 st8">176</text>
	<text transform="matrix(0.9808 0.1317 -0.1331 0.9911 705.5332 528.2005)" class="st7 st8">177</text>
	<text transform="matrix(0.9808 0.1317 -0.1331 0.9911 964.1997 583.8004)" class="st7 st8">11</text>
	<text transform="matrix(0.9808 0.1317 -0.1331 0.9911 902.4497 678.5399)" class="st7 st8">1</text>
	<text transform="matrix(0.9808 0.1317 -0.1331 0.9911 925.4497 637.2899)" class="st7 st8">2</text>
	<text transform="matrix(0.9808 0.1317 -0.1331 0.9911 871.4497 665.7899)" class="st7 st8">3</text>
	<text transform="matrix(0.9808 0.1317 -0.1331 0.9911 893.9497 622.7296)" class="st7 st8">4</text>
	<text transform="matrix(0.9808 0.1317 -0.1331 0.9911 840.8447 653.6404)" class="st7 st8">5</text>
	<text transform="matrix(0.9808 0.1317 -0.1331 0.9911 864.0947 607.8997)" class="st7 st8">6</text>
	<text transform="matrix(0.9808 0.1317 -0.1331 0.9911 809.5371 642.3997)" class="st7 st8">7</text>
	<text transform="matrix(0.9808 0.1317 -0.1331 0.9911 835.4063 592.3997)" class="st7 st8">8</text>
	<text transform="matrix(0.9808 0.1317 -0.1331 0.9911 778.6167 629.5218)" class="st7 st8">9</text>
	<text transform="matrix(0.9808 0.1317 -0.1331 0.9911 802.0005 577.4708)" class="st7 st8">10</text>
	<text transform="matrix(0.9808 0.1317 -0.1331 0.9911 758.0005 607.8997)" class="st7 st8">LS3</text>
	<text transform="matrix(0.9808 0.1317 -0.1331 0.9911 769.0005 576.2007)" class="st7 st8">LS2</text>
	<text transform="matrix(0.9808 0.1317 -0.1331 0.9911 776.2051 556.4224)" class="st7 st8">LS1</text>
	<text transform="matrix(0.9808 0.1317 -0.1331 0.9911 981.2002 555.3021)" class="st7 st8">12</text>
	<text transform="matrix(0.9808 0.1317 -0.1331 0.9911 944.8667 572.9437)" class="st7 st8">13</text>
	<text transform="matrix(0.9808 0.1317 -0.1331 0.9911 960.9229 544.034)" class="st7 st8">14</text>
	<text transform="matrix(0.9808 0.1317 -0.1331 0.9911 923.5894 560.2186)" class="st7 st8">15</text>
	<text transform="matrix(0.9808 0.1317 -0.1331 0.9911 940.2334 529.1722)" class="st7 st8">16</text>
	<text transform="matrix(0.9808 0.1317 -0.1331 0.9911 902.4434 548.6671)" class="st7 st8">17</text>
	<text transform="matrix(0.9808 0.1317 -0.1331 0.9911 918.6938 515.6006)" class="st7 st8">18</text>
	<text transform="matrix(0.9808 0.1317 -0.1331 0.9911 880.8003 535.6785)" class="st7 st8">19</text>
	<text transform="matrix(0.9808 0.1317 -0.1331 0.9911 898.4668 501.4007)" class="st7 st8">20</text>
	<text transform="matrix(0.9808 0.1317 -0.1331 0.9911 858.936 525.1539)" class="st7 st8">21</text>
	<text transform="matrix(0.9808 0.1317 -0.1331 0.9911 877.981 488.1539)" class="st7 st8">22</text>
	<text transform="matrix(0.9808 0.1317 -0.1331 0.9911 837.5005 512.7742)" class="st7 st8">23</text>
	<text transform="matrix(0.9808 0.1317 -0.1331 0.9911 857.5005 473.7008)" class="st7 st8">24</text>
	<text transform="matrix(0.9808 0.1317 -0.1331 0.9911 817.0728 495.3006)" class="st7 st8">25</text>
	<text transform="matrix(0.9808 0.1317 -0.1331 0.9911 835.4063 460.9073)" class="st7 st8">26</text>
	<text transform="matrix(0.9808 0.1317 -0.1331 0.9911 797.0728 481.2867)" class="st7 st8">27</text>
	<text transform="matrix(0.9808 0.1317 -0.1331 0.9911 815.0005 448.9806)" class="st7 st8">28</text>
	<text transform="matrix(0.9242 0.3539 -0.3576 0.9339 782.3892 462.19)" class="st7 st8">190</text>
	<text transform="matrix(0.8932 0.4262 -0.4307 0.9025 787.6423 444.7144)" class="st7 st8">189</text>
	<text transform="matrix(0.8932 0.4262 -0.4307 0.9025 791.9753 432.4774)" class="st7 st8">188</text>
	<text transform="matrix(0.8932 0.4262 -0.4307 0.9025 797.0729 418.178)" class="st7 st8">187</text>
	<text transform="matrix(0.9719 0.1865 -0.1884 0.9821 691.4482 454.1505)" class="st7 st8">35</text>
	<text transform="matrix(0.9719 0.1865 -0.1884 0.9821 701.6982 398.4005)" class="st7 st8">36</text>
	<text transform="matrix(0.9719 0.1865 -0.1884 0.9821 660.7324 450.0499)" class="st7 st8">37</text>
	<text transform="matrix(0.9719 0.1865 -0.1884 0.9821 670.9824 400.2999)" class="st7 st8">38</text>
	<text transform="matrix(0.9288 -0.3418 0.3453 0.9385 630.4807 448.9801)" class="st7 st8">39</text>
	<text transform="matrix(0.9288 -0.3418 0.3453 0.9385 639.7307 408.1679)" class="st7 st8">40</text>
	<text transform="matrix(0.9288 -0.3418 0.3453 0.9385 613.4807 420.9994)" class="st7 st8">41</text>
	<text transform="matrix(0.9799 0.1387 -0.1401 0.9901 717.6967 467.2835)" class="st7 st8">178</text>
	<text transform="matrix(0.9799 0.1387 -0.1401 0.9901 719.9648 454.1507)" class="st7 st8">179</text>
	<text transform="matrix(0.9799 0.1387 -0.1401 0.9901 722.0341 442.1507)" class="st7 st8">180</text>
	<text transform="matrix(0.9799 0.1387 -0.1401 0.9901 724.4999 430.2681)" class="st7 st8">181</text>
	<text transform="matrix(0.9799 0.1387 -0.1401 0.9901 725.978 418.315)" class="st7 st8">182</text>
	<text transform="matrix(0.9799 0.1387 -0.1401 0.9901 728.1059 406.565)" class="st7 st8">183</text>
	<text transform="matrix(0.9799 0.1387 -0.1401 0.9901 730.1909 394.4319)" class="st7 st8">184</text>
	<text transform="matrix(0.9799 0.1387 -0.1401 0.9901 727.2006 375.4319)" class="st7 st8">185</text>
	<text transform="matrix(0.9799 0.1387 -0.1401 0.9901 739.8066 380.6822)" class="st7 st8">186</text>
	<text transform="matrix(0.928 -0.3438 0.3474 0.9377 628.8596 569.7006)" class="st7 st8">43</text>
	<text transform="matrix(0.928 -0.3438 0.3474 0.9377 616.8596 540.0004)" class="st7 st8">44</text>
	<text transform="matrix(0.928 -0.3438 0.3474 0.9377 605.2003 513.2006)" class="st7 st8">45</text>
	<text transform="matrix(0.928 -0.3438 0.3474 0.9377 606.4503 610.4708)" class="st7 st8">48</text>
	<text transform="matrix(0.928 -0.3438 0.3474 0.9377 595.2003 583.0527)" class="st7 st8">49</text>
	<text transform="matrix(0.928 -0.3438 0.3474 0.9377 583.2001 555.3009)" class="st7 st8">50</text>
	<text transform="matrix(0.928 -0.3438 0.3474 0.9377 570.9321 527.6772)" class="st7 st8">51</text>
	<text transform="matrix(0.928 -0.3438 0.3474 0.9377 550.8004 577.4707)" class="st7 st8">55</text>
	<text transform="matrix(0.928 -0.3438 0.3474 0.9377 537.4678 602.9707)" class="st7 st8">59</text>
	<text transform="matrix(0.928 -0.3438 0.3474 0.9377 518.4742 559.4709)" class="st7 st8">60</text>
	<text transform="matrix(0.928 -0.3438 0.3474 0.9377 515.2402 609.1614)" class="st7 st8">63</text>
	<text transform="matrix(0.928 -0.3438 0.3474 0.9377 498.5735 567.9003)" class="st7 st8">64</text>
	<text transform="matrix(0.928 -0.3438 0.3474 0.9377 495.7476 619.5239)" class="st7 st8">67</text>
	<text transform="matrix(0.928 -0.3438 0.3474 0.9377 485.0809 593.9148)" class="st7 st8">68</text>
	<text transform="matrix(0.928 -0.3438 0.3474 0.9377 473.2476 566.7482)" class="st7 st8">69</text>
	<text transform="matrix(0.928 -0.3438 0.3474 0.9377 537.4671 545.3492)" class="st7 st8">56</text>
	<text transform="matrix(0.928 -0.3438 0.3474 0.9377 432.0004 634.6002)" class="st7 st8">76</text>
	<text transform="matrix(0.928 -0.3438 0.3474 0.9377 417.0004 598.5506)" class="st7 st8">77</text>
	<text transform="matrix(0.928 -0.3438 0.3474 0.9377 405.0008 645.3008)" class="st7 st8">80</text>
	<text transform="matrix(0.928 -0.3438 0.3474 0.9377 390.3042 610.4705)" class="st7 st8">81</text>
	<text transform="matrix(0.928 -0.3438 0.3474 0.9377 445.4004 587.4706)" class="st7 st8">73</text>
	<text transform="matrix(0.928 -0.3438 0.3474 0.9377 365.3223 645.3002)" class="st7 st8">85</text>
	<text transform="matrix(0.928 -0.3438 0.3474 0.9377 354.5504 618.8004)" class="st7 st8">86</text>
	<text transform="matrix(0.928 -0.3438 0.3474 0.9377 349.111 682.6005)" class="st7 st8">90</text>
	<text transform="matrix(0.928 -0.3438 0.3474 0.9377 338.4506 657.3009)" class="st7 st8">91</text>
	<text transform="matrix(0.928 -0.3438 0.3474 0.9377 327.7504 630.4001)" class="st7 st8">92</text>
	<text transform="matrix(0.928 -0.3438 0.3474 0.9377 304.4954 673.5237)" class="st7 st8">97</text>
	<text transform="matrix(0.928 -0.3438 0.3474 0.9377 298.4264 645.6004)" class="st7 st8">98</text>
	<text transform="matrix(0.928 -0.3438 0.3474 0.9377 279.9997 649.6998)" class="st7 st8">99</text>
	<text transform="matrix(0.8105 -0.5678 0.5738 0.819 249.4965 653.6404)" class="st7 st8">111</text>
	<text transform="matrix(0.8105 -0.5678 0.5738 0.819 259.4965 666.9006)" class="st7 st8">112</text>
	<text transform="matrix(0.8105 -0.5678 0.5738 0.819 268.8299 678.5674)" class="st7 st8">113</text>
	<text transform="matrix(0.8105 -0.5678 0.5738 0.819 278.1633 690.9006)" class="st7 st8">114</text>
	<text transform="matrix(0.8105 -0.5678 0.5738 0.819 287.1633 703.2339)" class="st7 st8">115</text>
	<text transform="matrix(0.8105 -0.5678 0.5738 0.819 295.7003 714.9006)" class="st7 st8">116</text>
	<text transform="matrix(0.989 -3.429385e-02 3.465845e-02 0.9994 683.8657 643.2111)" class="st7 st8">LS6</text>
	<text transform="matrix(0.989 -3.429385e-02 3.465845e-02 0.9994 510.9999 653.2372)" class="st7 st11">LS4-D.I.B</text>
	<text transform="matrix(0.989 -3.429385e-02 3.465845e-02 0.9994 549.7487 651.3666)" class="st7 st8">STEP</text>
	<text transform="matrix(0.9882 -5.356544e-02 5.413152e-02 0.9985 582.8828 644.5019)" class="st12"><tspan x="0" y="0" class="st7 st11">BASSINS DE</tspan><tspan x="0" y="8.4" class="st7 st11">RECUPERATION DES EAUX</tspan></text>
	<text transform="matrix(0.9772 -0.1566 0.1582 0.9874 480.5798 658.4108)" class="st7 st8">LS5</text>
</g>
</svg>
